<svg xmlns="http://www.w3.org/2000/svg" viewBox="0 0 1200 800" role="img"><title>Diagram arsitektur Lemme: Caddy di depan UI Nginx dan API Go Fiber</title><defs><marker id="a" viewBox="0 0 10 10" refX="9" refY="5" markerWidth="7" markerHeight="7" orient="auto"><path d="M0 0L10 5L0 10z" fill="#525252"/></marker><marker id="b" viewBox="0 0 10 10" refX="9" refY="5" markerWidth="7" markerHeight="7" orient="auto"><path d="M0 0L10 5L0 10z" fill="#F37338"/></marker></defs><g font-family="sans-serif" fill="#525252"><rect x="500" y="30" width="200" height="60" rx="30" fill="none" stroke="#525252" stroke-width="2"/><text x="600" y="58" text-anchor="middle" font-size="16">User / Browser</text><text x="600" y="78" text-anchor="middle" font-size="13" fill="#A3A3A3">HTTPS</text><line x1="600" y1="90" x2="600" y2="150" stroke="#525252" stroke-width="2" marker-end="url(#a)"/><rect x="450" y="155" width="300" height="80" rx="6" fill="none" stroke="#F37338" stroke-width="3"/><text x="600" y="185" text-anchor="middle" font-size="20" fill="#F37338">Caddy</text><text x="600" y="210" text-anchor="middle" font-size="14">Reverse Proxy · TLS Termination</text><text x="600" y="228" text-anchor="middle" font-size="13" fill="#A3A3A3">lemme.app</text><path d="M540 235 L540 280 L300 280 L300 320" fill="none" stroke="#525252" stroke-width="2" marker-end="url(#a)"/><path d="M660 235 L660 280 L900 280 L900 320" fill="none" stroke="#525252" stroke-width="2" marker-end="url(#a)"/><text x="380" y="272" font-size="13" fill="#A3A3A3">/ (static)</text><text x="760" y="272" font-size="13" fill="#A3A3A3">/api/*</text><rect x="170" y="325" width="260" height="100" rx="6" fill="none" stroke="#525252" stroke-width="2"/><text x="300" y="355" text-anchor="middle" font-size="18">UI · Nginx</text><text x="300" y="380" text-anchor="middle" font-size="14">Solid.js static build</text><text x="300" y="402" text-anchor="middle" font-size="13" fill="#A3A3A3">SPA assets · gzip</text><rect x="770" y="325" width="260" height="100" rx="6" fill="none" stroke="#525252" stroke-width="2"/><text x="900" y="355" text-anchor="middle" font-size="18">API · Go Fiber</text><text x="900" y="380" text-anchor="middle" font-size="14">HTTP handlers · auth</text><text x="900" y="402" text-anchor="middle" font-size="13" fill="#A3A3A3">JSON over HTTP</text><line x1="820" y1="425" x2="540" y2="555" stroke="#525252" stroke-width="2" marker-end="url(#a)"/><line x1="900" y1="425" x2="900" y2="555" stroke="#525252" stroke-width="2" marker-end="url(#a)"/><line x1="980" y1="425" x2="1090" y2="555" stroke="#F37338" stroke-width="2" marker-end="url(#b)"/><rect x="380" y="540" width="660" height="180" rx="6" fill="none" stroke="#A3A3A3" stroke-width="2" stroke-dasharray="6 4"/><text x="400" y="565" font-size="13" fill="#A3A3A3">Internal data stores</text><rect x="420" y="560" width="240" height="90" rx="6" fill="none" stroke="#525252" stroke-width="2"/><text x="540" y="595" text-anchor="middle" font-size="18">MySQL</text><text x="540" y="620" text-anchor="middle" font-size="13" fill="#A3A3A3">persistent storage</text><rect x="780" y="560" width="240" height="90" rx="6" fill="none" stroke="#525252" stroke-width="2"/><text x="900" y="595" text-anchor="middle" font-size="18">Redis</text><text x="900" y="620" text-anchor="middle" font-size="13" fill="#A3A3A3">cache · sessions</text><path d="M1040 555 Q1080 540 1110 555 Q1160 540 1170 575 Q1190 600 1170 625 Q1160 660 1110 655 Q1070 670 1040 650 Q1010 660 1010 625 Q990 600 1010 575 Q1010 545 1040 555 Z" fill="none" stroke="#F37338" stroke-width="2"/><text x="1090" y="605" text-anchor="middle" font-size="15" fill="#F37338">OCR / LLM</text><text x="1090" y="625" text-anchor="middle" font-size="12" fill="#A3A3A3">external API</text><text x="1090" y="700" text-anchor="middle" font-size="12" fill="#A3A3A3">third-party providers</text></g></svg>