<svg xmlns="http://www.w3.org/2000/svg" viewBox="0 0 1200 800" role="img">
<title>Alur kerja siklus belajar lab: baca, bangun, simpan, tulis laporan</title>
<g fill="none" stroke="#525252" stroke-width="2">
<circle cx="600" cy="340" r="200" stroke-dasharray="4 6" opacity="0.5"/>
</g>
<text x="600" y="332" font-family="sans-serif" font-size="20" fill="#F37338" text-anchor="middle" font-weight="bold">Siklus Belajar</text>
<text x="600" y="358" font-family="sans-serif" font-size="20" fill="#F37338" text-anchor="middle" font-weight="bold">Lab</text>

<g stroke="#525252" stroke-width="3" fill="none" stroke-linecap="round">
<path d="M 720 200 A 200 200 0 0 1 780 380" marker-end="url(#arr)"/>
<path d="M 720 480 A 200 200 0 0 1 480 480" marker-end="url(#arr)"/>
<path d="M 420 380 A 200 200 0 0 1 480 200" marker-end="url(#arr)"/>
<path d="M 540 165 A 200 200 0 0 1 660 165" marker-end="url(#arr)"/>
</g>

<defs>
<marker id="arr" viewBox="0 0 10 10" refX="8" refY="5" markerWidth="7" markerHeight="7" orient="auto">
<path d="M0,0 L10,5 L0,10 z" fill="#525252"/>
</marker>
<marker id="arrd" viewBox="0 0 10 10" refX="8" refY="5" markerWidth="7" markerHeight="7" orient="auto">
<path d="M0,0 L10,5 L0,10 z" fill="#A3A3A3"/>
</marker>
</defs>

<g font-family="sans-serif" fill="#525252">
<g transform="translate(440,100)">
<rect x="0" y="0" width="80" height="96" rx="4" stroke="#525252" stroke-width="2" fill="none"/>
<path d="M 60 0 L 80 20 L 60 20 Z" fill="#A3A3A3" stroke="#525252" stroke-width="2"/>
<line x1="14" y1="42" x2="58" y2="42" stroke="#525252" stroke-width="2"/>
<line x1="14" y1="56" x2="66" y2="56" stroke="#525252" stroke-width="2"/>
<line x1="14" y1="70" x2="58" y2="70" stroke="#525252" stroke-width="2"/>
<line x1="14" y1="84" x2="50" y2="84" stroke="#525252" stroke-width="2"/>
<text x="40" y="-16" font-size="14" fill="#F37338" text-anchor="middle" font-weight="bold">1</text>
<text x="40" y="124" font-size="16" text-anchor="middle">Baca Instruksi</text>
</g>

<g transform="translate(740,100)">
<circle cx="20" cy="30" r="14" stroke="#525252" stroke-width="2" fill="none"/>
<circle cx="80" cy="30" r="14" stroke="#525252" stroke-width="2" fill="none"/>
<rect x="30" y="70" width="40" height="26" stroke="#525252" stroke-width="2" fill="none"/>
<line x1="20" y1="44" x2="40" y2="70" stroke="#525252" stroke-width="2"/>
<line x1="80" y1="44" x2="60" y2="70" stroke="#525252" stroke-width="2"/>
<line x1="50" y1="96" x2="50" y2="110" stroke="#525252" stroke-width="2"/>
<rect x="32" y="78" width="6" height="4" fill="#A3A3A3"/>
<rect x="42" y="78" width="6" height="4" fill="#A3A3A3"/>
<rect x="52" y="78" width="6" height="4" fill="#A3A3A3"/>
<rect x="62" y="78" width="6" height="4" fill="#A3A3A3"/>
<text x="50" y="-16" font-size="14" fill="#F37338" text-anchor="middle" font-weight="bold">2</text>
<text x="50" y="130" font-size="16" text-anchor="middle">Bangun &amp; Uji Topologi</text>
</g>

<g transform="translate(740,440)">
<path d="M 8 0 L 80 0 L 92 12 L 92 96 L 8 96 Z" stroke="#525252" stroke-width="2" fill="none"/>
<rect x="22" y="0" width="56" height="30" fill="#A3A3A3" stroke="#525252" stroke-width="2"/>
<rect x="64" y="6" width="8" height="18" fill="#525252"/>
<rect x="22" y="50" width="56" height="38" stroke="#525252" stroke-width="2" fill="none"/>
<text x="50" y="74" font-size="12" text-anchor="middle">.pkt</text>
<text x="50" y="-16" font-size="14" fill="#F37338" text-anchor="middle" font-weight="bold">3</text>
<text x="50" y="120" font-size="16" text-anchor="middle">Simpan Berkas .pkt</text>
</g>

<g transform="translate(440,440)">
<rect x="0" y="0" width="80" height="96" rx="3" stroke="#525252" stroke-width="2" fill="none"/>
<line x1="14" y1="0" x2="14" y2="96" stroke="#525252" stroke-width="2"/>
<circle cx="14" cy="14" r="3" fill="#A3A3A3"/>
<circle cx="14" cy="34" r="3" fill="#A3A3A3"/>
<circle cx="14" cy="54" r="3" fill="#A3A3A3"/>
<circle cx="14" cy="74" r="3" fill="#A3A3A3"/>
<line x1="26" y1="18" x2="72" y2="18" stroke="#525252" stroke-width="2"/>
<line x1="26" y1="34" x2="68" y2="34" stroke="#525252" stroke-width="2"/>
<line x1="26" y1="50" x2="72" y2="50" stroke="#525252" stroke-width="2"/>
<line x1="26" y1="66" x2="60" y2="66" stroke="#525252" stroke-width="2"/>
<line x1="26" y1="82" x2="68" y2="82" stroke="#525252" stroke-width="2"/>
<text x="40" y="-16" font-size="14" fill="#F37338" text-anchor="middle" font-weight="bold">4</text>
<text x="40" y="120" font-size="16" text-anchor="middle">Tulis Laporan Lab</text>
</g>
</g>

<line x1="600" y1="600" x2="600" y2="660" stroke="#A3A3A3" stroke-width="2" stroke-dasharray="6 6" marker-end="url(#arrd)"/>

<g transform="translate(380,670)">
<rect x="0" y="0" width="440" height="100" rx="6" stroke="#525252" stroke-width="2" fill="none"/>
<text x="220" y="32" font-family="sans-serif" font-size="18" fill="#F37338" text-anchor="middle" font-weight="bold">Pantau Kemajuan Mingguan</text>
<g stroke="#525252" stroke-width="2" fill="none">
<rect x="40" y="52" width="30" height="30"/>
<rect x="90" y="52" width="30" height="30"/>
<rect x="140" y="52" width="30" height="30"/>
<rect x="190" y="52" width="30" height="30"/>
<rect x="240" y="52" width="30" height="30"/>
<rect x="290" y="52" width="30" height="30"/>
<rect x="340" y="52" width="30" height="30"/>
</g>
<g fill="#F37338">
<rect x="40" y="52" width="30" height="30"/>
<rect x="90" y="52" width="30" height="30"/>
<rect x="140" y="52" width="30" height="30"/>
</g>
<text x="390" y="74" font-family="sans-serif" font-size="14" fill="#525252">3/7</text>
</g>
</svg>