<svg xmlns="http://www.w3.org/2000/svg" viewBox="0 0 1200 800" role="img"><title>Pipeline: source files ke PNG via carbon-now-cli</title><g font-family="sans-serif" font-size="16" fill="#525252"><text x="120" y="170" font-size="18">Source files</text><g stroke="#525252" stroke-width="2" fill="none"><rect x="100" y="200" width="200" height="60" rx="4"/><rect x="115" y="215" width="200" height="60" rx="4" fill="#FCFBFA" fill-opacity="0"/><rect x="115" y="215" width="200" height="60" rx="4"/><rect x="130" y="230" width="200" height="60" rx="4"/></g><text x="345" y="240" text-anchor="end">.java</text><text x="345" y="270" text-anchor="end">.xml</text><text x="345" y="300" text-anchor="end">AndroidManifest.xml</text><g stroke="#525252" stroke-width="2" fill="none"><polyline points="120,210 130,210 130,220"/><polyline points="135,225 145,225 145,235"/><polyline points="150,240 160,240 160,250"/></g><g stroke="#525252" stroke-width="3" fill="none"><line x1="360" y1="255" x2="490" y2="255"/><polygon points="490,247 506,255 490,263" fill="#525252"/></g><text x="425" y="240" text-anchor="middle" font-size="14">helper script</text><text x="425" y="280" text-anchor="middle" font-size="13" font-style="italic">(copy + glob)</text><text x="660" y="140" text-anchor="middle" font-size="14" fill="#F37338">copy + render with syntax highlighting</text><g stroke="#F37338" stroke-width="2" fill="none"><line x1="660" y1="155" x2="660" y2="200"/><polygon points="652,200 660,216 668,200" fill="#F37338"/></g><g stroke="#F37338" stroke-width="3" fill="none"><rect x="525" y="220" width="270" height="120" rx="6"/></g><text x="660" y="265" text-anchor="middle" font-size="20" fill="#F37338">carbon-now-cli</text><text x="660" y="295" text-anchor="middle" font-size="13">tokenize → theme → rasterize</text><g stroke="#525252" stroke-width="2" fill="none" font-size="11"><rect x="555" y="305" width="60" height="22" rx="2"/><rect x="630" y="305" width="60" height="22" rx="2"/><rect x="705" y="305" width="60" height="22" rx="2"/></g><text x="585" y="320" text-anchor="middle" font-size="11">parse</text><text x="660" y="320" text-anchor="middle" font-size="11">style</text><text x="735" y="320" text-anchor="middle" font-size="11">PNG</text><g stroke="#525252" stroke-width="3" fill="none"><line x1="810" y1="280" x2="940" y2="280"/><polygon points="940,272 956,280 940,288" fill="#525252"/></g><text x="875" y="265" text-anchor="middle" font-size="14">render</text><g stroke="#525252" stroke-width="2" fill="none"><path d="M 970 230 L 1020 230 L 1035 245 L 1160 245 L 1160 410 L 970 410 Z"/></g><text x="1065" y="232" font-size="14">screenshots/</text><g><g transform="translate(990,265)"><rect width="68" height="48" rx="3" stroke="#525252" stroke-width="2" fill="none"/><line x1="8" y1="14" x2="40" y2="14" stroke="#F37338" stroke-width="2"/><line x1="8" y1="24" x2="55" y2="24" stroke="#525252" stroke-width="2"/><line x1="8" y1="34" x2="32" y2="34" stroke="#A3A3A3" stroke-width="2"/></g><g transform="translate(1075,265)"><rect width="68" height="48" rx="3" stroke="#525252" stroke-width="2" fill="none"/><line x1="8" y1="14" x2="50" y2="14" stroke="#525252" stroke-width="2"/><line x1="8" y1="24" x2="36" y2="24" stroke="#F37338" stroke-width="2"/><line x1="8" y1="34" x2="48" y2="34" stroke="#A3A3A3" stroke-width="2"/></g><g transform="translate(990,330)"><rect width="68" height="48" rx="3" stroke="#525252" stroke-width="2" fill="none"/><line x1="8" y1="14" x2="44" y2="14" stroke="#525252" stroke-width="2"/><line x1="8" y1="24" x2="55" y2="24" stroke="#F37338" stroke-width="2"/><line x1="8" y1="34" x2="28" y2="34" stroke="#A3A3A3" stroke-width="2"/></g><g transform="translate(1075,330)"><rect width="68" height="48" rx="3" stroke="#525252" stroke-width="2" fill="none"/><line x1="8" y1="14" x2="38" y2="14" stroke="#A3A3A3" stroke-width="2"/><line x1="8" y1="24" x2="52" y2="24" stroke="#525252" stroke-width="2"/><line x1="8" y1="34" x2="42" y2="34" stroke="#F37338" stroke-width="2"/></g></g><text x="1065" y="445" text-anchor="middle" font-size="14">PNG thumbnails</text><g font-size="13" fill="#A3A3A3"><text x="210" y="510" text-anchor="middle">input</text><text x="660" y="510" text-anchor="middle">transform</text><text x="1065" y="510" text-anchor="middle">output</text></g><g stroke="#A3A3A3" stroke-width="2" stroke-dasharray="4 4" fill="none"><line x1="120" y1="525" x2="300" y2="525"/><line x1="540" y1="525" x2="780" y2="525"/><line x1="970" y1="525" x2="1160" y2="525"/></g></g></svg>