<svg xmlns="http://www.w3.org/2000/svg" viewBox="0 0 1200 800" role="img" aria-label="Diagram alur kerja Karyawan dan Manager dalam aplikasi absen">
<defs>
<marker id="a" viewBox="0 0 10 10" refX="9" refY="5" markerWidth="6" markerHeight="6" orient="auto">
<path d="M0 0L10 5L0 10z" fill="#525252"/>
</marker>
</defs>
<text x="60" y="160" font-family="sans-serif" font-size="20" fill="#F37338" font-weight="bold">Karyawan</text>
<line x1="60" y1="175" x2="200" y2="175" stroke="#F37338" stroke-width="2"/>
<g font-family="sans-serif" font-size="14" fill="#525252" text-anchor="middle">
<rect x="60" y="210" width="150" height="70" rx="12" fill="none" stroke="#525252" stroke-width="2"/>
<text x="135" y="240">Login NIK</text>
<text x="135" y="260">+ Password</text>
<rect x="245" y="210" width="150" height="70" rx="12" fill="none" stroke="#525252" stroke-width="2"/>
<text x="320" y="240">Mulai Jam</text>
<text x="320" y="260">Kerja</text>
<rect x="430" y="210" width="150" height="70" rx="12" fill="none" stroke="#F37338" stroke-width="3"/>
<circle cx="465" cy="245" r="11" fill="none" stroke="#F37338" stroke-width="2"/>
<line x1="465" y1="245" x2="465" y2="238" stroke="#F37338" stroke-width="2"/>
<line x1="465" y1="245" x2="471" y2="248" stroke="#F37338" stroke-width="2"/>
<text x="515" y="250" fill="#F37338" font-weight="bold">Clock In</text>
<rect x="615" y="210" width="150" height="70" rx="12" fill="none" stroke="#525252" stroke-width="2"/>
<text x="690" y="250">Bekerja</text>
<rect x="800" y="210" width="150" height="70" rx="12" fill="none" stroke="#525252" stroke-width="2"/>
<text x="875" y="240">Akhir Jam</text>
<text x="875" y="260">Kerja</text>
<rect x="985" y="210" width="150" height="70" rx="12" fill="none" stroke="#F37338" stroke-width="3"/>
<circle cx="1020" cy="245" r="11" fill="none" stroke="#F37338" stroke-width="2"/>
<line x1="1020" y1="245" x2="1020" y2="238" stroke="#F37338" stroke-width="2"/>
<line x1="1020" y1="245" x2="1026" y2="248" stroke="#F37338" stroke-width="2"/>
<text x="1075" y="250" fill="#F37338" font-weight="bold">Clock Out</text>
</g>
<g stroke="#525252" stroke-width="2" fill="none" marker-end="url(#a)">
<line x1="212" y1="245" x2="241" y2="245"/>
<line x1="397" y1="245" x2="426" y2="245"/>
<line x1="582" y1="245" x2="611" y2="245"/>
<line x1="767" y1="245" x2="796" y2="245"/>
<line x1="952" y1="245" x2="981" y2="245"/>
</g>
<line x1="60" y1="380" x2="1140" y2="380" stroke="#A3A3A3" stroke-width="2" stroke-dasharray="6 6"/>
<text x="60" y="490" font-family="sans-serif" font-size="20" fill="#F37338" font-weight="bold">Manager</text>
<line x1="60" y1="505" x2="200" y2="505" stroke="#F37338" stroke-width="2"/>
<g font-family="sans-serif" font-size="14" fill="#525252" text-anchor="middle">
<rect x="60" y="540" width="180" height="70" rx="12" fill="none" stroke="#525252" stroke-width="2"/>
<text x="150" y="580">Login Manager</text>
<rect x="320" y="540" width="180" height="70" rx="12" fill="none" stroke="#525252" stroke-width="2"/>
<text x="410" y="572">Buka</text>
<text x="410" y="592">Dashboard</text>
<rect x="580" y="540" width="240" height="70" rx="12" fill="none" stroke="#525252" stroke-width="2"/>
<text x="700" y="572">Lihat Rekap Absen</text>
<text x="700" y="592">Karyawan</text>
</g>
<g stroke="#525252" stroke-width="2" fill="none" marker-end="url(#a)">
<line x1="242" y1="575" x2="316" y2="575"/>
<line x1="502" y1="575" x2="576" y2="575"/>
</g>
<text x="60" y="710" font-family="sans-serif" font-size="14" fill="#A3A3A3">Alur kerja paralel: Karyawan mencatat kehadiran, Manager memantau rekap.</text>
</svg>