<svg xmlns="http://www.w3.org/2000/svg" viewBox="0 0 1200 800" role="img"><title>Alur permintaan POST /send dari klien ke WhatsApp melalui layanan</title><defs><marker id="a" viewBox="0 0 10 10" refX="9" refY="5" markerWidth="8" markerHeight="8" orient="auto"><path d="M0,0 L10,5 L0,10 z" fill="#525252"/></marker><marker id="o" viewBox="0 0 10 10" refX="9" refY="5" markerWidth="8" markerHeight="8" orient="auto"><path d="M0,0 L10,5 L0,10 z" fill="#F37338"/></marker></defs><g font-family="sans-serif" font-size="16" fill="#525252"><rect x="60" y="30" width="160" height="40" fill="none" stroke="#525252" stroke-width="2" rx="4"/><text x="140" y="55" text-anchor="middle">Client</text><rect x="330" y="30" width="200" height="40" fill="none" stroke="#525252" stroke-width="2" rx="4"/><text x="430" y="55" text-anchor="middle">Go Service</text><rect x="640" y="30" width="180" height="40" fill="none" stroke="#525252" stroke-width="2" rx="4"/><text x="730" y="55" text-anchor="middle">whatsmeow</text><rect x="920" y="30" width="180" height="40" fill="none" stroke="#525252" stroke-width="2" rx="4"/><text x="1010" y="55" text-anchor="middle">WhatsApp</text></g><g stroke="#A3A3A3" stroke-width="2" stroke-dasharray="4 4"><line x1="140" y1="72" x2="140" y2="690"/><line x1="430" y1="72" x2="430" y2="690"/><line x1="730" y1="72" x2="730" y2="690"/><line x1="1010" y1="72" x2="1010" y2="690"/></g><line x1="140" y1="110" x2="430" y2="110" stroke="#F37338" stroke-width="3" marker-end="url(#o)"/><text x="285" y="100" text-anchor="middle" font-family="sans-serif" font-size="14" fill="#F37338">POST /send + Bearer + JSON body</text><rect x="340" y="135" width="180" height="36" fill="none" stroke="#525252" stroke-width="2" rx="4"/><text x="430" y="158" text-anchor="middle" font-family="sans-serif" font-size="14" fill="#525252">validate Bearer token</text><text x="430" y="200" text-anchor="middle" font-family="sans-serif" font-size="14" fill="#525252">resolve target (priority)</text><path d="M430,210 L520,260 L430,310 L340,260 Z" fill="none" stroke="#525252" stroke-width="2"/><text x="430" y="265" text-anchor="middle" font-family="sans-serif" font-size="14" fill="#525252">target?</text><g font-family="sans-serif" font-size="13" fill="#525252"><rect x="555" y="215" width="180" height="32" fill="none" stroke="#525252" stroke-width="2" rx="4"/><text x="645" y="236" text-anchor="middle">1. body.to (JID)</text><rect x="555" y="252" width="180" height="32" fill="none" stroke="#525252" stroke-width="2" rx="4"/><text x="645" y="273" text-anchor="middle">2. body.group</text><rect x="555" y="289" width="180" height="32" fill="none" stroke="#525252" stroke-width="2" rx="4"/><text x="645" y="310" text-anchor="middle">3. env DEFAULT_TARGET</text></g><g stroke="#525252" stroke-width="2" fill="none"><line x1="520" y1="235" x2="555" y2="231" marker-end="url(#a)"/><line x1="520" y1="260" x2="555" y2="268" marker-end="url(#a)"/><line x1="520" y1="285" x2="555" y2="305" marker-end="url(#a)"/></g><line x1="430" y1="360" x2="730" y2="360" stroke="#525252" stroke-width="2" marker-end="url(#a)"/><text x="580" y="350" text-anchor="middle" font-family="sans-serif" font-size="14" fill="#525252">SendMessage(jid, msg)</text><line x1="730" y1="410" x2="1010" y2="410" stroke="#F37338" stroke-width="3" marker-end="url(#o)"/><text x="870" y="400" text-anchor="middle" font-family="sans-serif" font-size="14" fill="#F37338">WS frame over WhatsApp</text><line x1="1010" y1="450" x2="730" y2="450" stroke="#525252" stroke-width="2" stroke-dasharray="6 4" marker-end="url(#a)"/><text x="870" y="440" text-anchor="middle" font-family="sans-serif" font-size="14" fill="#525252">ack / message-id</text><line x1="730" y1="490" x2="430" y2="490" stroke="#525252" stroke-width="2" stroke-dasharray="6 4" marker-end="url(#a)"/><text x="580" y="480" text-anchor="middle" font-family="sans-serif" font-size="14" fill="#525252">result</text><rect x="340" y="520" width="180" height="36" fill="none" stroke="#525252" stroke-width="2" rx="4"/><text x="430" y="543" text-anchor="middle" font-family="sans-serif" font-size="14" fill="#525252">write audit log</text><line x1="520" y1="538" x2="635" y2="538" stroke="#525252" stroke-width="2" marker-end="url(#a)"/><g transform="translate(640,510)"><ellipse cx="55" cy="8" rx="50" ry="8" fill="none" stroke="#525252" stroke-width="2"/><path d="M5,8 L5,52 Q55,64 105,52 L105,8" fill="none" stroke="#525252" stroke-width="2"/><text x="55" y="42" text-anchor="middle" font-family="sans-serif" font-size="14" fill="#525252">SQLite</text></g><line x1="430" y1="620" x2="140" y2="620" stroke="#F37338" stroke-width="3" stroke-dasharray="6 4" marker-end="url(#o)"/><text x="285" y="610" text-anchor="middle" font-family="sans-serif" font-size="14" fill="#F37338">JSON response (200 OK / error)</text><g font-family="sans-serif" font-size="13" fill="#525252"><line x1="80" y1="720" x2="130" y2="720" stroke="#525252" stroke-width="2" marker-end="url(#a)"/><text x="140" y="725">internal call</text><line x1="270" y1="720" x2="320" y2="720" stroke="#525252" stroke-width="2" stroke-dasharray="6 4" marker-end="url(#a)"/><text x="330" y="725">async / return</text><line x1="470" y1="720" x2="520" y2="720" stroke="#F37338" stroke-width="3" marker-end="url(#o)"/><text x="530" y="725" fill="#F37338">client-facing edge</text></g></svg>