<svg xmlns="http://www.w3.org/2000/svg" viewBox="0 0 1200 800" role="img" aria-label="Alur konfigurasi environment variable dari file .env ke aplikasi Flutter">
<defs>
<marker id="a" viewBox="0 0 10 10" refX="9" refY="5" markerWidth="7" markerHeight="7" orient="auto">
<path d="M0,0 L10,5 L0,10 z" fill="#525252"/>
</marker>
<marker id="o" viewBox="0 0 10 10" refX="9" refY="5" markerWidth="7" markerHeight="7" orient="auto">
<path d="M0,0 L10,5 L0,10 z" fill="#F37338"/>
</marker>
</defs>
<g font-family="sans-serif" fill="#525252">

<g>
<path d="M60,120 L260,120 L290,150 L290,330 L60,330 z" fill="none" stroke="#525252" stroke-width="3"/>
<path d="M260,120 L260,150 L290,150" fill="none" stroke="#525252" stroke-width="2"/>
<text x="175" y="170" font-size="18" text-anchor="middle" font-weight="bold">.env</text>
<text x="175" y="190" font-size="13" text-anchor="middle">(project root)</text>
<line x1="80" y1="205" x2="270" y2="205" stroke="#A3A3A3" stroke-width="2"/>
<text x="80" y="232" font-size="14">SUPABASE_URL</text>
<text x="80" y="262" font-size="14">SUPABASE_ANON_KEY</text>
<text x="80" y="292" font-size="14">REDIRECT_URL</text>
</g>

<g>
<rect x="430" y="180" width="280" height="90" rx="6" fill="none" stroke="#525252" stroke-width="3"/>
<text x="570" y="215" font-size="18" text-anchor="middle" font-weight="bold">Flutter App</text>
<text x="570" y="240" font-size="16" text-anchor="middle">Initialization</text>
<text x="570" y="260" font-size="12" text-anchor="middle" fill="#A3A3A3">flutter_dotenv.load()</text>
</g>

<path d="M290,225 L430,225" fill="none" stroke="#525252" stroke-width="2" marker-end="url(#a)"/>
<text x="360" y="218" font-size="12" text-anchor="middle">load</text>

<g>
<rect x="820" y="80" width="320" height="80" rx="6" fill="none" stroke="#525252" stroke-width="3"/>
<text x="980" y="115" font-size="17" text-anchor="middle" font-weight="bold">Supabase Client</text>
<text x="980" y="138" font-size="13" text-anchor="middle">URL + Anon Key</text>
</g>

<g>
<rect x="820" y="290" width="320" height="80" rx="6" fill="none" stroke="#525252" stroke-width="3"/>
<text x="980" y="325" font-size="17" text-anchor="middle" font-weight="bold">OAuth Handler</text>
<text x="980" y="348" font-size="13" text-anchor="middle">Redirect URL</text>
</g>

<path d="M710,210 Q770,210 770,120 L820,120" fill="none" stroke="#525252" stroke-width="2" marker-end="url(#a)"/>
<path d="M710,240 Q770,240 770,330 L820,330" fill="none" stroke="#525252" stroke-width="2" marker-end="url(#a)"/>

<g>
<path d="M880,520 q-40,0 -50,30 q-50,5 -50,40 q0,40 60,40 l160,0 q60,0 60,-40 q0,-35 -50,-40 q-10,-30 -50,-30 q-20,-20 -45,-20 q-25,0 -35,20 z" fill="none" stroke="#525252" stroke-width="3"/>
<text x="980" y="595" font-size="17" text-anchor="middle" font-weight="bold">Supabase</text>
<text x="980" y="618" font-size="15" text-anchor="middle">Backend</text>
</g>

<path d="M980,160 L980,510" fill="none" stroke="#525252" stroke-width="2" marker-end="url(#a)"/>
<text x="995" y="340" font-size="12">HTTPS</text>

<g>
<rect x="430" y="490" width="310" height="80" rx="6" fill="none" stroke="#525252" stroke-width="3"/>
<text x="585" y="525" font-size="17" text-anchor="middle" font-weight="bold">External Provider</text>
<text x="585" y="548" font-size="13" text-anchor="middle">(Google, etc.)</text>
</g>

<path d="M820,360 Q780,420 740,490" fill="none" stroke="#525252" stroke-width="2" marker-end="url(#a)"/>
<text x="810" y="430" font-size="12">authorize</text>

<path d="M430,530 Q300,530 290,400 L290,290 Q290,270 310,270 L430,250" fill="none" stroke="#F37338" stroke-width="2" stroke-dasharray="6,4" marker-end="url(#o)"/>
<text x="200" y="430" font-size="13" fill="#F37338">callback via</text>
<text x="200" y="448" font-size="13" fill="#F37338">REDIRECT_URL</text>

<text x="600" y="730" font-size="13" text-anchor="middle" fill="#A3A3A3">.env → runtime config → Supabase + OAuth flow</text>

</g>
</svg>