<svg xmlns="http://www.w3.org/2000/svg" viewBox="0 0 1200 800" role="img"><text x="600" y="40" font-family="sans-serif" font-size="20" fill="#525252" text-anchor="middle">σ = √(Σ(xᵢ − μ)² / N)</text><text x="300" y="90" font-family="sans-serif" font-size="20" fill="#525252" text-anchor="middle">Lantai Bersih</text><g stroke="#525252" stroke-width="2" fill="none"><rect x="150" y="110" width="300" height="180"/><line x1="225" y1="110" x2="225" y2="290"/><line x1="300" y1="110" x2="300" y2="290"/><line x1="375" y1="110" x2="375" y2="290"/><line x1="150" y1="170" x2="450" y2="170"/><line x1="150" y1="230" x2="450" y2="230"/></g><g fill="#A3A3A3" opacity="0.25"><rect x="152" y="112" width="71" height="56"/><rect x="227" y="112" width="71" height="56"/><rect x="302" y="112" width="71" height="56"/><rect x="377" y="112" width="71" height="56"/><rect x="152" y="172" width="71" height="56"/><rect x="227" y="172" width="71" height="56"/><rect x="302" y="172" width="71" height="56"/><rect x="377" y="172" width="71" height="56"/><rect x="152" y="232" width="71" height="56"/><rect x="227" y="232" width="71" height="56"/><rect x="302" y="232" width="71" height="56"/><rect x="377" y="232" width="71" height="56"/></g><g stroke="#525252" stroke-width="2" fill="none"><line x1="150" y1="490" x2="450" y2="490"/><line x1="300" y1="490" x2="300" y2="340"/></g><g fill="#A3A3A3"><rect x="270" y="350" width="60" height="140"/><rect x="240" y="430" width="30" height="60"/><rect x="330" y="430" width="30" height="60"/><rect x="210" y="470" width="30" height="20"/><rect x="360" y="470" width="30" height="20"/></g><text x="300" y="510" font-family="sans-serif" font-size="14" fill="#525252" text-anchor="middle">μ</text><g stroke="#F37338" stroke-width="2"><line x1="270" y1="380" x2="330" y2="380"/><line x1="270" y1="375" x2="270" y2="385"/><line x1="330" y1="375" x2="330" y2="385"/></g><text x="300" y="370" font-family="sans-serif" font-size="16" fill="#F37338" text-anchor="middle">σ kecil</text><text x="900" y="90" font-family="sans-serif" font-size="20" fill="#525252" text-anchor="middle">Lantai Kotor</text><g stroke="#525252" stroke-width="2" fill="none"><rect x="750" y="110" width="300" height="180"/><line x1="825" y1="110" x2="825" y2="290"/><line x1="900" y1="110" x2="900" y2="290"/><line x1="975" y1="110" x2="975" y2="290"/><line x1="750" y1="170" x2="1050" y2="170"/><line x1="750" y1="230" x2="1050" y2="230"/></g><g fill="#A3A3A3" opacity="0.25"><rect x="752" y="112" width="71" height="56"/><rect x="827" y="112" width="71" height="56"/><rect x="902" y="112" width="71" height="56"/><rect x="977" y="112" width="71" height="56"/><rect x="752" y="172" width="71" height="56"/><rect x="827" y="172" width="71" height="56"/><rect x="902" y="172" width="71" height="56"/><rect x="977" y="172" width="71" height="56"/><rect x="752" y="232" width="71" height="56"/><rect x="827" y="232" width="71" height="56"/><rect x="902" y="232" width="71" height="56"/><rect x="977" y="232" width="71" height="56"/></g><g fill="#525252"><circle cx="790" cy="140" r="7"/><circle cx="870" cy="200" r="10"/><circle cx="940" cy="155" r="6"/><circle cx="1010" cy="220" r="9"/><circle cx="820" cy="260" r="8"/><circle cx="960" cy="265" r="7"/><circle cx="890" cy="135" r="5"/><circle cx="780" cy="220" r="6"/></g><g stroke="#525252" stroke-width="2" fill="none"><line x1="750" y1="490" x2="1050" y2="490"/><line x1="900" y1="490" x2="900" y2="340"/></g><g fill="#A3A3A3"><rect x="870" y="420" width="60" height="70"/><rect x="810" y="440" width="60" height="50"/><rect x="930" y="440" width="60" height="50"/><rect x="765" y="460" width="45" height="30"/><rect x="990" y="460" width="45" height="30"/></g><text x="900" y="510" font-family="sans-serif" font-size="14" fill="#525252" text-anchor="middle">μ</text><g stroke="#F37338" stroke-width="2"><line x1="800" y1="400" x2="1000" y2="400"/><line x1="800" y1="395" x2="800" y2="405"/><line x1="1000" y1="395" x2="1000" y2="405"/></g><text x="900" y="390" font-family="sans-serif" font-size="16" fill="#F37338" text-anchor="middle">σ besar</text><line x1="100" y1="680" x2="1100" y2="680" stroke="#525252" stroke-width="2"/><line x1="600" y1="600" x2="600" y2="730" stroke="#F37338" stroke-width="2" stroke-dasharray="6,4"/><text x="600" y="590" font-family="sans-serif" font-size="16" fill="#F37338" text-anchor="middle">threshold</text><circle cx="350" cy="680" r="10" fill="none" stroke="#525252" stroke-width="2"/><text x="350" y="715" font-family="sans-serif" font-size="14" fill="#525252" text-anchor="middle">σ bersih</text><circle cx="850" cy="680" r="10" fill="#F37338"/><text x="850" y="715" font-family="sans-serif" font-size="14" fill="#525252" text-anchor="middle">σ kotor</text><text x="120" y="675" font-family="sans-serif" font-size="14" fill="#525252">bersih</text><text x="1050" y="675" font-family="sans-serif" font-size="14" fill="#525252" text-anchor="end">kotor</text></svg>