<svg xmlns="http://www.w3.org/2000/svg" viewBox="0 0 1200 800" role="img"><text x="600" y="40" font-family="sans-serif" font-size="18" fill="#525252" text-anchor="middle">Bootstrap flow: satu perintah</text><rect x="450" y="60" width="300" height="50" rx="6" fill="none" stroke="#F37338" stroke-width="3"/><text x="600" y="92" font-family="sans-serif" font-size="18" fill="#F37338" text-anchor="middle" font-weight="bold">./bootstrap.sh</text><path d="M600 110 L600 140" stroke="#525252" stroke-width="2" fill="none"/><polygon points="600,148 594,138 606,138" fill="#525252"/><g><rect x="380" y="150" width="440" height="60" rx="6" fill="none" stroke="#525252" stroke-width="2"/><circle cx="410" cy="180" r="14" fill="none" stroke="#525252" stroke-width="2"/><path d="M402 178 h6 l3 -4 h7 v10 h-16 z" fill="none" stroke="#525252" stroke-width="2"/><text x="440" y="175" font-family="sans-serif" font-size="14" fill="#F37338" font-weight="bold">1</text><text x="455" y="175" font-family="sans-serif" font-size="15" fill="#525252">mkdir target dirs</text><text x="455" y="195" font-family="sans-serif" font-size="13" fill="#525252">~/.config/&lt;tool&gt;</text></g><path d="M600 210 L600 240" stroke="#525252" stroke-width="2" fill="none"/><polygon points="600,248 594,238 606,238" fill="#525252"/><g><rect x="380" y="250" width="440" height="60" rx="6" fill="none" stroke="#525252" stroke-width="2"/><circle cx="410" cy="280" r="14" fill="none" stroke="#525252" stroke-width="2"/><path d="M404 280 a4 4 0 0 1 4 -4 h3 M416 280 a4 4 0 0 0 -4 -4 h-3 M404 280 a4 4 0 0 0 4 4 h3 M416 280 a4 4 0 0 1 -4 4 h-3" fill="none" stroke="#525252" stroke-width="2"/><text x="440" y="275" font-family="sans-serif" font-size="14" fill="#F37338" font-weight="bold">2</text><text x="455" y="275" font-family="sans-serif" font-size="15" fill="#525252">stow &lt;tool&gt;</text><text x="455" y="295" font-family="sans-serif" font-size="13" fill="#525252">create symlinks for each tool</text></g><path d="M600 310 L600 340" stroke="#525252" stroke-width="2" fill="none"/><polygon points="600,348 594,338 606,338" fill="#525252"/><g><rect x="380" y="350" width="440" height="60" rx="6" fill="none" stroke="#525252" stroke-width="2"/><rect x="398" y="368" width="24" height="24" fill="none" stroke="#525252" stroke-width="2"/><path d="M398 374 L410 380 L422 374 M410 380 L410 392" stroke="#525252" stroke-width="2" fill="none"/><text x="440" y="375" font-family="sans-serif" font-size="14" fill="#F37338" font-weight="bold">3</text><text x="455" y="375" font-family="sans-serif" font-size="15" fill="#525252">brew bundle</text><text x="455" y="395" font-family="sans-serif" font-size="13" fill="#525252">install ~50 packages (optional)</text></g><path d="M600 410 L600 440" stroke="#525252" stroke-width="2" fill="none"/><polygon points="600,448 594,438 606,438" fill="#525252"/><g><rect x="380" y="450" width="440" height="60" rx="6" fill="none" stroke="#525252" stroke-width="2"/><rect x="396" y="468" width="28" height="24" rx="2" fill="none" stroke="#525252" stroke-width="2"/><text x="400" y="486" font-family="sans-serif" font-size="12" fill="#525252">&gt;_</text><text x="440" y="475" font-family="sans-serif" font-size="14" fill="#F37338" font-weight="bold">4</text><text x="455" y="475" font-family="sans-serif" font-size="15" fill="#525252">install shell plugins</text><text x="455" y="495" font-family="sans-serif" font-size="13" fill="#525252">zsh: autosuggestions, completions</text></g><path d="M600 510 L600 540" stroke="#525252" stroke-width="2" fill="none"/><polygon points="600,548 594,538 606,538" fill="#525252"/><g><rect x="380" y="550" width="440" height="60" rx="6" fill="none" stroke="#525252" stroke-width="2"/><circle cx="410" cy="580" r="10" fill="none" stroke="#525252" stroke-width="2"/><circle cx="410" cy="580" r="3" fill="#525252"/><path d="M410 568 v-4 M410 596 v-4 M398 580 h-4 M426 580 h-4 M402 572 l-3 -3 M418 588 l3 3 M402 588 l-3 3 M418 572 l3 -3" stroke="#525252" stroke-width="2"/><text x="440" y="575" font-family="sans-serif" font-size="14" fill="#F37338" font-weight="bold">5</text><text x="455" y="575" font-family="sans-serif" font-size="15" fill="#525252">defaults write</text><text x="455" y="595" font-family="sans-serif" font-size="13" fill="#525252">apply macOS system preferences</text></g><path d="M600 610 L600 650" stroke="#525252" stroke-width="2" fill="none"/><polygon points="600,658 594,648 606,648" fill="#525252"/><rect x="360" y="660" width="480" height="70" rx="8" fill="none" stroke="#F37338" stroke-width="3"/><text x="600" y="690" font-family="sans-serif" font-size="17" fill="#F37338" text-anchor="middle" font-weight="bold">Ready-to-work environment</text><text x="600" y="712" font-family="sans-serif" font-size="14" fill="#525252" text-anchor="middle">&lt; 10 menit</text></svg>