<svg xmlns="http://www.w3.org/2000/svg" viewBox="0 0 1200 800" role="img"><title>Matrix 6x6 per sisi dengan thumb cluster dan koneksi TRRS</title><text x="600" y="34" font-family="sans-serif" font-size="20" fill="#525252" text-anchor="middle">Dactyl Manuform — Matrix 6×6 + Thumb Cluster</text><rect x="470" y="50" width="260" height="42" fill="none" stroke="#F37338" stroke-width="2"/><text x="600" y="78" font-family="sans-serif" font-size="18" fill="#F37338" text-anchor="middle">K_total = 2 × (6×6) = 72</text><g font-family="sans-serif" font-size="14" fill="#525252"><text x="245" y="120" text-anchor="middle">Left Side</text><text x="955" y="120" text-anchor="middle">Right Side (Master)</text></g><g stroke="#525252" stroke-width="2" fill="none"><path d="M90 160 H400 M90 200 H400 M90 240 H400 M90 280 H400 M90 320 H400 M90 360 H400"/><path d="M120 140 V380 M176 140 V380 M232 140 V380 M288 140 V380 M344 140 V380 M400 140 V380"/></g><g font-family="sans-serif" font-size="13" fill="#525252"><text x="76" y="164">R0</text><text x="76" y="204">R1</text><text x="76" y="244">R2</text><text x="76" y="284">R3</text><text x="76" y="324">R4</text><text x="76" y="364">R5</text><text x="120" y="134" text-anchor="middle">C0</text><text x="176" y="134" text-anchor="middle">C1</text><text x="232" y="134" text-anchor="middle">C2</text><text x="288" y="134" text-anchor="middle">C3</text><text x="344" y="134" text-anchor="middle">C4</text><text x="400" y="134" text-anchor="middle">C5</text></g><g fill="#A3A3A3" stroke="#525252" stroke-width="2"><circle cx="120" cy="160" r="4"/><circle cx="176" cy="200" r="4"/><circle cx="232" cy="240" r="4"/><circle cx="288" cy="280" r="4"/><circle cx="344" cy="320" r="4"/><circle cx="400" cy="360" r="4"/></g><g stroke="#525252" stroke-width="2" fill="none"><path d="M800 160 H1110 M800 200 H1110 M800 240 H1110 M800 280 H1110 M800 320 H1110 M800 360 H1110"/><path d="M830 140 V380 M886 140 V380 M942 140 V380 M998 140 V380 M1054 140 V380 M1110 140 V380"/></g><g font-family="sans-serif" font-size="13" fill="#525252"><text x="786" y="164">R0</text><text x="786" y="204">R1</text><text x="786" y="244">R2</text><text x="786" y="284">R3</text><text x="786" y="324">R4</text><text x="786" y="364">R5</text><text x="830" y="134" text-anchor="middle">C0</text><text x="886" y="134" text-anchor="middle">C1</text><text x="942" y="134" text-anchor="middle">C2</text><text x="998" y="134" text-anchor="middle">C3</text><text x="1054" y="134" text-anchor="middle">C4</text><text x="1110" y="134" text-anchor="middle">C5</text></g><g fill="#A3A3A3" stroke="#525252" stroke-width="2"><circle cx="830" cy="160" r="4"/><circle cx="886" cy="200" r="4"/><circle cx="942" cy="240" r="4"/><circle cx="998" cy="280" r="4"/><circle cx="1054" cy="320" r="4"/><circle cx="1110" cy="360" r="4"/></g><g stroke="#F37338" stroke-width="2" fill="none" marker-end="url(#a)"><path d="M150 156 L150 184"/><path d="M860 156 L860 184"/></g><defs><marker id="a" viewBox="0 0 10 10" refX="9" refY="5" markerWidth="6" markerHeight="6" orient="auto"><path d="M0 0 L10 5 L0 10 z" fill="#F37338"/></marker></defs><text x="170" y="178" font-family="sans-serif" font-size="12" fill="#F37338">COL2ROW</text><text x="880" y="178" font-family="sans-serif" font-size="12" fill="#F37338">COL2ROW</text><g stroke="#525252" stroke-width="2" fill="none" stroke-dasharray="4 3"><path d="M232 360 V440 H400 V360"/><path d="M942 360 V440 H1110 V360"/></g><g stroke="#525252" stroke-width="2" fill="none"><circle cx="270" cy="420" r="12"/><circle cx="310" cy="430" r="12"/><circle cx="350" cy="430" r="12"/><circle cx="390" cy="420" r="12"/><circle cx="980" cy="420" r="12"/><circle cx="1020" cy="430" r="12"/><circle cx="1060" cy="430" r="12"/><circle cx="1100" cy="420" r="12"/></g><g font-family="sans-serif" font-size="13" fill="#525252"><text x="330" y="475" text-anchor="middle">Thumb Cluster (reuses R4–R5 / C2–C5)</text><text x="1040" y="475" text-anchor="middle">Thumb Cluster (reuses R4–R5 / C2–C5)</text></g><rect x="120" y="520" width="220" height="60" fill="none" stroke="#525252" stroke-width="3"/><rect x="860" y="520" width="220" height="60" fill="none" stroke="#525252" stroke-width="3"/><g font-family="sans-serif" font-size="14" fill="#525252" text-anchor="middle"><text x="230" y="545">Pro Micro</text><text x="230" y="565">(ATmega32U4)</text><text x="970" y="545">Pro Micro — Master</text><text x="970" y="565">(ATmega32U4)</text></g><g stroke="#525252" stroke-width="2" fill="none"><path d="M340 550 H400"/><path d="M860 550 H800"/><circle cx="410" cy="550" r="10"/><circle cx="790" cy="550" r="10"/></g><g font-family="sans-serif" font-size="13" fill="#525252" text-anchor="middle"><text x="410" y="585">TRRS</text><text x="790" y="585">TRRS</text></g><path d="M420 550 Q600 670 780 550" stroke="#F37338" stroke-width="3" fill="none"/><text x="600" y="700" font-family="sans-serif" font-size="16" fill="#F37338" text-anchor="middle">TRRS cable (serial / I²C link)</text><g stroke="#525252" stroke-width="2" fill="none" marker-end="url(#a)"><path d="M230 600 V630"/><path d="M970 600 V630"/></g><text x="230" y="650" font-family="sans-serif" font-size="13" fill="#525252" text-anchor="middle">scans local matrix</text><text x="970" y="650" font-family="sans-serif" font-size="13" fill="#525252" text-anchor="middle">USB → Host</text><path d="M970 660 V690 H1110" stroke="#525252" stroke-width="2" fill="none" marker-end="url(#a)"/><text x="1110" y="708" font-family="sans-serif" font-size="13" fill="#525252" text-anchor="middle">USB-C</text></svg>