<svg xmlns="http://www.w3.org/2000/svg" viewBox="0 0 1200 800" role="img">
<defs>
<marker id="a" viewBox="0 0 10 10" refX="9" refY="5" markerWidth="8" markerHeight="8" orient="auto-start-reverse"><path d="M0,0 L10,5 L0,10 z" fill="#525252"/></marker>
<marker id="b" viewBox="0 0 10 10" refX="9" refY="5" markerWidth="7" markerHeight="7" orient="auto-start-reverse"><path d="M0,0 L10,5 L0,10 z" fill="#F37338"/></marker>
</defs>
<g font-family="sans-serif" fill="#525252">
<rect x="60" y="160" width="220" height="100" rx="6" fill="none" stroke="#525252" stroke-width="2"/>
<rect x="74" y="174" width="14" height="14" rx="2" fill="none" stroke="#F37338" stroke-width="2"/>
<path d="M77 181 l4 4 l5 -7" fill="none" stroke="#F37338" stroke-width="2"/>
<text x="96" y="186" font-size="13" fill="#F37338" font-weight="bold">Fase 1</text>
<text x="170" y="218" text-anchor="middle" font-size="14">Reverse Keymap</text>
<text x="170" y="238" text-anchor="middle" font-size="13">tes tombol manual</text>

<rect x="340" y="160" width="220" height="100" rx="6" fill="none" stroke="#525252" stroke-width="2"/>
<rect x="354" y="174" width="14" height="14" rx="2" fill="none" stroke="#F37338" stroke-width="2"/>
<path d="M357 181 l4 4 l5 -7" fill="none" stroke="#F37338" stroke-width="2"/>
<text x="376" y="186" font-size="13" fill="#F37338" font-weight="bold">Fase 2</text>
<text x="450" y="218" text-anchor="middle" font-size="14">Scaffold proyek</text>
<text x="450" y="238" text-anchor="middle" font-size="13">QMK</text>

<rect x="620" y="160" width="220" height="100" rx="6" fill="none" stroke="#525252" stroke-width="2"/>
<rect x="634" y="174" width="14" height="14" rx="2" fill="none" stroke="#F37338" stroke-width="2"/>
<path d="M637 181 l4 4 l5 -7" fill="none" stroke="#F37338" stroke-width="2"/>
<text x="656" y="186" font-size="13" fill="#F37338" font-weight="bold">Fase 3</text>
<text x="730" y="218" text-anchor="middle" font-size="14">File konfigurasi</text>
<text x="730" y="238" text-anchor="middle" font-size="13">config.h, rules.mk</text>

<rect x="900" y="160" width="220" height="100" rx="6" fill="none" stroke="#525252" stroke-width="2"/>
<rect x="914" y="174" width="14" height="14" rx="2" fill="none" stroke="#F37338" stroke-width="2"/>
<path d="M917 181 l4 4 l5 -7" fill="none" stroke="#F37338" stroke-width="2"/>
<text x="936" y="186" font-size="13" fill="#F37338" font-weight="bold">Fase 4</text>
<text x="1010" y="218" text-anchor="middle" font-size="14">Template keymap</text>
<text x="1010" y="238" text-anchor="middle" font-size="13">(semua layer)</text>

<rect x="900" y="460" width="220" height="100" rx="6" fill="none" stroke="#525252" stroke-width="2"/>
<rect x="914" y="474" width="14" height="14" rx="2" fill="none" stroke="#F37338" stroke-width="2"/>
<path d="M917 481 l4 4 l5 -7" fill="none" stroke="#F37338" stroke-width="2"/>
<text x="936" y="486" font-size="13" fill="#F37338" font-weight="bold">Fase 5</text>
<text x="1010" y="518" text-anchor="middle" font-size="14">Tentukan master</text>
<text x="1010" y="538" text-anchor="middle" font-size="13">USB vs hand-wire</text>

<rect x="620" y="460" width="220" height="100" rx="6" fill="none" stroke="#525252" stroke-width="2"/>
<rect x="634" y="474" width="14" height="14" rx="2" fill="none" stroke="#F37338" stroke-width="2"/>
<path d="M637 481 l4 4 l5 -7" fill="none" stroke="#F37338" stroke-width="2"/>
<text x="656" y="486" font-size="13" fill="#F37338" font-weight="bold">Fase 6</text>
<text x="730" y="518" text-anchor="middle" font-size="14">Flashing aman</text>
<text x="730" y="538" text-anchor="middle" font-size="13">compile → flash → ulang</text>

<rect x="340" y="460" width="220" height="100" rx="6" fill="none" stroke="#525252" stroke-width="2"/>
<rect x="354" y="474" width="14" height="14" rx="2" fill="none" stroke="#F37338" stroke-width="2"/>
<path d="M357 481 l4 4 l5 -7" fill="none" stroke="#F37338" stroke-width="2"/>
<text x="376" y="486" font-size="13" fill="#F37338" font-weight="bold">Fase 7</text>
<text x="450" y="518" text-anchor="middle" font-size="14">Debug matrix</text>
<text x="450" y="538" text-anchor="middle" font-size="13">via console</text>

<line x1="282" y1="210" x2="338" y2="210" stroke="#525252" stroke-width="2" marker-end="url(#a)"/>
<line x1="562" y1="210" x2="618" y2="210" stroke="#525252" stroke-width="2" marker-end="url(#a)"/>
<line x1="842" y1="210" x2="898" y2="210" stroke="#525252" stroke-width="2" marker-end="url(#a)"/>
<path d="M1010 262 L1010 458" fill="none" stroke="#525252" stroke-width="2" marker-end="url(#a)"/>
<line x1="898" y1="510" x2="842" y2="510" stroke="#525252" stroke-width="2" marker-end="url(#a)"/>
<line x1="618" y1="510" x2="562" y2="510" stroke="#525252" stroke-width="2" marker-end="url(#a)"/>

<line x1="310" y1="262" x2="310" y2="318" stroke="#F37338" stroke-width="2" stroke-dasharray="4,3"/>
<text x="310" y="338" text-anchor="middle" font-size="13" fill="#F37338" font-weight="bold">Verifikasi fisik</text>
<text x="310" y="356" text-anchor="middle" font-size="13" fill="#F37338">diperlukan sebelum</text>
<text x="310" y="374" text-anchor="middle" font-size="13" fill="#F37338">melanjutkan</text>

<path d="M450 458 C 450 360, 1010 360, 1010 262" fill="none" stroke="#F37338" stroke-width="2" stroke-dasharray="6,4" marker-end="url(#b)"/>
<text x="730" y="350" text-anchor="middle" font-size="14" fill="#F37338" font-style="italic">iterasi keymap</text>

<text x="600" y="700" text-anchor="middle" font-size="13" fill="#A3A3A3">Setiap kotak menghasilkan artefak yang dapat diverifikasi (✓)</text>
</g>
</svg>