<svg xmlns="http://www.w3.org/2000/svg" viewBox="0 0 1200 800" role="img"><title>Diagram koneksi perangkat pengguna ke internet melalui router, ISP, dan server web</title><g font-family="sans-serif" fill="#525252" font-size="16"><rect x="40" y="340" width="120" height="90" rx="6" fill="none" stroke="#525252" stroke-width="2"/><rect x="60" y="360" width="80" height="50" rx="3" fill="none" stroke="#525252" stroke-width="2"/><rect x="40" y="412" width="120" height="6" fill="#A3A3A3"/><text x="100" y="455" text-anchor="middle">Perangkat</text><text x="100" y="473" text-anchor="middle">Pengguna</text><path d="M165 370 L255 370" stroke="#F37338" stroke-width="3" fill="none" marker-end="url(#a)"/><path d="M255 400 L165 400" stroke="#525252" stroke-width="3" fill="none" marker-end="url(#a)"/><text x="210" y="362" text-anchor="middle" fill="#F37338" font-size="14">permintaan</text><text x="210" y="420" text-anchor="middle" font-size="14">respons</text><rect x="260" y="340" width="130" height="90" rx="6" fill="none" stroke="#525252" stroke-width="2"/><rect x="280" y="370" width="90" height="30" rx="3" fill="none" stroke="#525252" stroke-width="2"/><circle cx="295" cy="385" r="3" fill="#A3A3A3"/><circle cx="315" cy="385" r="3" fill="#A3A3A3"/><circle cx="335" cy="385" r="3" fill="#A3A3A3"/><circle cx="355" cy="385" r="3" fill="#A3A3A3"/><path d="M315 370 L315 355 M345 370 L345 355" stroke="#525252" stroke-width="2"/><text x="325" y="420" text-anchor="middle">Router</text><path d="M395 385 L455 385" stroke="#525252" stroke-width="3" fill="none" marker-start="url(#a)" marker-end="url(#a)"/><path d="M475 390 q-25 -5 -25 -30 q0 -25 30 -25 q5 -25 35 -25 q25 0 35 22 q25 -10 45 5 q15 12 5 35 q15 8 5 25 q-10 15 -30 10 q-10 18 -35 13 q-20 20 -45 5 q-20 5 -25 -10 q-15 0 -15 -10 q-10 -3 -5 -15z" fill="none" stroke="#525252" stroke-width="2"/><text x="540" y="380" text-anchor="middle" font-size="15">ISP</text><text x="540" y="400" text-anchor="middle" font-size="13">(Penyedia Layanan</text><text x="540" y="416" text-anchor="middle" font-size="13">Internet)</text><path d="M625 385 L690 385" stroke="#525252" stroke-width="3" fill="none" marker-start="url(#a)" marker-end="url(#a)"/><path d="M715 395 q-30 -5 -30 -35 q0 -30 35 -30 q5 -30 40 -30 q30 0 40 25 q30 -12 55 5 q18 14 5 40 q20 8 8 30 q-12 18 -38 12 q-12 22 -42 16 q-25 22 -55 5 q-25 5 -30 -12 q-18 0 -18 -12 q-12 -3 -5 -18z" fill="none" stroke="#525252" stroke-width="3"/><text x="800" y="390" text-anchor="middle" font-size="18" fill="#F37338">Internet</text><path d="M870 360 L990 215" stroke="#525252" stroke-width="2" fill="none" marker-start="url(#a)" marker-end="url(#a)"/><path d="M880 400 L990 400" stroke="#525252" stroke-width="2" fill="none" marker-start="url(#a)" marker-end="url(#a)"/><path d="M870 430 L990 580" stroke="#525252" stroke-width="2" fill="none" marker-start="url(#a)" marker-end="url(#a)"/><g stroke="#525252" stroke-width="2" fill="none"><rect x="990" y="170" width="160" height="90" rx="6"/><rect x="1010" y="190" width="120" height="14"/><rect x="1010" y="210" width="120" height="14"/><rect x="1010" y="230" width="120" height="14"/><circle cx="1020" cy="197" r="2" fill="#F37338" stroke="none"/><circle cx="1020" cy="217" r="2" fill="#A3A3A3" stroke="none"/><circle cx="1020" cy="237" r="2" fill="#A3A3A3" stroke="none"/></g><text x="1070" y="285" text-anchor="middle">Server Web</text><g stroke="#525252" stroke-width="2" fill="none"><rect x="990" y="355" width="160" height="90" rx="6"/><rect x="1010" y="375" width="120" height="14"/><rect x="1010" y="395" width="120" height="14"/><rect x="1010" y="415" width="120" height="14"/><circle cx="1020" cy="382" r="2" fill="#A3A3A3" stroke="none"/><circle cx="1020" cy="402" r="2" fill="#F37338" stroke="none"/><circle cx="1020" cy="422" r="2" fill="#A3A3A3" stroke="none"/></g><text x="1070" y="470" text-anchor="middle">Server Jejaring</text><text x="1070" y="488" text-anchor="middle">Sosial</text><g stroke="#525252" stroke-width="2" fill="none"><rect x="990" y="540" width="160" height="90" rx="6"/><rect x="1010" y="560" width="120" height="14"/><rect x="1010" y="580" width="120" height="14"/><rect x="1010" y="600" width="120" height="14"/><circle cx="1020" cy="567" r="2" fill="#A3A3A3" stroke="none"/><circle cx="1020" cy="587" r="2" fill="#A3A3A3" stroke="none"/><circle cx="1020" cy="607" r="2" fill="#F37338" stroke="none"/></g><text x="1070" y="655" text-anchor="middle">Server Email</text></g><defs><marker id="a" viewBox="0 0 10 10" refX="9" refY="5" markerWidth="6" markerHeight="6" orient="auto"><path d="M0 0 L10 5 L0 10 z" fill="#525252"/></marker></defs></svg>