<svg xmlns="http://www.w3.org/2000/svg" viewBox="0 0 1200 800" role="img" aria-label="Spektrum komputasi dari perangkat tertanam hingga komputasi awan">
<text x="600" y="40" font-family="sans-serif" font-size="20" fill="#525252" text-anchor="middle">Spektrum Komputasi</text>
<text x="180" y="90" font-family="sans-serif" font-size="18" fill="#525252" text-anchor="middle">Komputer Tertanam</text>
<text x="1020" y="90" font-family="sans-serif" font-size="18" fill="#525252" text-anchor="middle">Komputasi Awan</text>

<g stroke="#525252" stroke-width="2" fill="none">
<rect x="60" y="130" width="110" height="80" rx="4"/>
<circle cx="115" cy="170" r="22"/>
<rect x="105" y="160" width="20" height="20"/>
<text x="115" y="230" font-family="sans-serif" font-size="13" fill="#525252" text-anchor="middle">Mesin Cuci</text>

<rect x="195" y="130" width="110" height="80" rx="10"/>
<circle cx="220" cy="210" r="10"/>
<circle cx="280" cy="210" r="10"/>
<rect x="240" y="150" width="35" height="25"/>
<text x="250" y="230" font-family="sans-serif" font-size="13" fill="#525252" text-anchor="middle">Mobil</text>

<rect x="60" y="270" width="110" height="80" rx="4"/>
<circle cx="115" cy="310" r="25"/>
<line x1="115" y1="295" x2="115" y2="310"/>
<line x1="115" y1="310" x2="128" y2="310"/>
<text x="115" y="370" font-family="sans-serif" font-size="13" fill="#525252" text-anchor="middle">Termostat</text>

<rect x="195" y="270" width="110" height="80" rx="4"/>
<circle cx="250" cy="305" r="18"/>
<rect x="244" y="323" width="12" height="14"/>
<text x="250" y="370" font-family="sans-serif" font-size="13" fill="#525252" text-anchor="middle">Lampu Pintar</text>
</g>

<g fill="#F37338" stroke="none">
<rect x="105" y="170" width="20" height="20"/>
<rect x="240" y="160" width="35" height="15"/>
<rect x="244" y="323" width="12" height="14"/>
<rect x="108" y="303" width="14" height="14"/>
</g>

<text x="183" y="395" font-family="sans-serif" font-size="14" fill="#525252" text-anchor="middle" font-style="italic">kecil · terintegrasi · satu fungsi</text>

<g stroke="#525252" stroke-width="3" fill="none">
<path d="M 870 200 q -40 -50 -90 -20 q -40 -40 -90 0 q -50 -10 -50 50 q -40 10 -20 50 q 0 40 60 35 l 200 0 q 60 5 60 -35 q 30 -30 -10 -60 q 20 -50 -60 -30 z"/>
</g>

<g stroke="#525252" stroke-width="2" fill="none">
<rect x="725" y="190" width="120" height="22" rx="2"/>
<rect x="725" y="218" width="120" height="22" rx="2"/>
<rect x="725" y="246" width="120" height="22" rx="2"/>
<circle cx="737" cy="201" r="3"/>
<circle cx="737" cy="229" r="3"/>
<circle cx="737" cy="257" r="3" fill="#F37338" stroke="none"/>
<line x1="755" y1="201" x2="830" y2="201"/>
<line x1="755" y1="229" x2="830" y2="229"/>
<line x1="755" y1="257" x2="830" y2="257"/>
</g>
<text x="785" y="300" font-family="sans-serif" font-size="13" fill="#525252" text-anchor="middle">Server Racks</text>

<g stroke="#525252" stroke-width="2" fill="none">
<rect x="930" y="330" width="80" height="50" rx="3"/>
<rect x="945" y="380" width="50" height="6"/>
<text x="970" y="405" font-family="sans-serif" font-size="12" fill="#525252" text-anchor="middle">Laptop</text>

<rect x="1050" y="335" width="38" height="60" rx="5"/>
<circle cx="1069" cy="385" r="2"/>
<text x="1069" y="412" font-family="sans-serif" font-size="12" fill="#525252" text-anchor="middle">Telepon</text>

<rect x="830" y="335" width="60" height="50" rx="4"/>
<text x="860" y="405" font-family="sans-serif" font-size="12" fill="#525252" text-anchor="middle">Tablet</text>
</g>

<g stroke="#F37338" stroke-width="2" fill="none" marker-end="url(#a)">
<line x1="860" y1="335" x2="800" y2="280"/>
<line x1="970" y1="330" x2="900" y2="280"/>
<line x1="1069" y1="335" x2="980" y2="270"/>
</g>

<defs>
<marker id="a" viewBox="0 0 10 10" refX="9" refY="5" markerWidth="6" markerHeight="6" orient="auto">
<path d="M0,0 L10,5 L0,10 z" fill="#F37338"/>
</marker>
<marker id="b" viewBox="0 0 10 10" refX="9" refY="5" markerWidth="8" markerHeight="8" orient="auto">
<path d="M0,0 L10,5 L0,10 z" fill="#525252"/>
</marker>
</defs>

<text x="1020" y="455" font-family="sans-serif" font-size="14" fill="#525252" text-anchor="middle" font-style="italic">terdistribusi · elastis · serbaguna</text>

<line x1="350" y1="500" x2="850" y2="500" stroke="#F37338" stroke-width="3" marker-end="url(#a)"/>
<text x="600" y="490" font-family="sans-serif" font-size="18" fill="#F37338" text-anchor="middle" font-weight="bold">Skala &amp; Konektivitas</text>

<g font-family="sans-serif" font-size="14" fill="#525252">
<text x="183" y="580" text-anchor="middle" font-size="15" font-weight="bold">Contoh Penggunaan</text>
<rect x="80" y="600" width="210" height="32" rx="4" stroke="#525252" stroke-width="2" fill="none"/>
<text x="185" y="621" text-anchor="middle">IoT</text>
<rect x="80" y="640" width="210" height="32" rx="4" stroke="#525252" stroke-width="2" fill="none"/>
<text x="185" y="661" text-anchor="middle">Otomotif</text>
<rect x="80" y="680" width="210" height="32" rx="4" stroke="#525252" stroke-width="2" fill="none"/>
<text x="185" y="701" text-anchor="middle">Peralatan Rumah</text>

<text x="1020" y="580" text-anchor="middle" font-size="15" font-weight="bold">Contoh Penggunaan</text>
<rect x="915" y="600" width="210" height="32" rx="4" stroke="#525252" stroke-width="2" fill="none"/>
<text x="1020" y="621" text-anchor="middle">Penyimpanan</text>
<rect x="915" y="640" width="210" height="32" rx="4" stroke="#525252" stroke-width="2" fill="none"/>
<text x="1020" y="661" text-anchor="middle">SaaS</text>
<rect x="915" y="680" width="210" height="32" rx="4" stroke="#525252" stroke-width="2" fill="none"/>
<text x="1020" y="701" text-anchor="middle">Pemrosesan Jarak Jauh</text>
</g>
</svg>