<svg xmlns="http://www.w3.org/2000/svg" viewBox="0 0 1200 800" role="img"><title>Peta kategori perangkat teknologi konsumen dan karakteristik utamanya</title><g stroke="#525252" stroke-width="2" fill="none"><line x1="600" y1="370" x2="600" y2="152"/><line x1="638" y1="370" x2="788" y2="252"/><line x1="690" y1="421" x2="782" y2="440"/><line x1="614" y1="430" x2="706" y2="622"/><line x1="586" y1="430" x2="494" y2="622"/><line x1="510" y1="421" x2="418" y2="440"/><line x1="562" y1="370" x2="412" y2="252"/></g><rect x="510" y="370" width="180" height="60" rx="6" stroke="#F37338" stroke-width="3" fill="none"/><text x="600" y="395" text-anchor="middle" font-family="sans-serif" font-size="18" fill="#F37338">Perangkat</text><text x="600" y="418" text-anchor="middle" font-family="sans-serif" font-size="18" fill="#F37338">Teknologi</text><g font-family="sans-serif" fill="#525252"><rect x="510" y="112" width="180" height="36" rx="4" stroke="#525252" stroke-width="2" fill="none"/><text x="600" y="136" text-anchor="middle" font-size="16">Laptop</text><text x="600" y="170" text-anchor="middle" font-size="14">portabel · serbaguna</text><rect x="721" y="214" width="180" height="36" rx="4" stroke="#525252" stroke-width="2" fill="none"/><text x="811" y="238" text-anchor="middle" font-size="16">Tablet</text><text x="811" y="272" text-anchor="middle" font-size="14">layar sentuh · hybrid</text><rect x="773" y="442" width="180" height="36" rx="4" stroke="#525252" stroke-width="2" fill="none"/><text x="863" y="466" text-anchor="middle" font-size="16">Desktop</text><text x="863" y="500" text-anchor="middle" font-size="14">stasioner · bertenaga</text><rect x="627" y="625" width="180" height="36" rx="4" stroke="#525252" stroke-width="2" fill="none"/><text x="717" y="649" text-anchor="middle" font-size="16">Smartphone</text><text x="717" y="683" text-anchor="middle" font-size="14">komunikasi · pintar</text><rect x="393" y="625" width="180" height="36" rx="4" stroke="#525252" stroke-width="2" fill="none"/><text x="483" y="649" text-anchor="middle" font-size="16">Kamera Digital</text><text x="483" y="683" text-anchor="middle" font-size="14">gambar resolusi tinggi</text><rect x="247" y="442" width="180" height="36" rx="4" stroke="#525252" stroke-width="2" fill="none"/><text x="337" y="466" text-anchor="middle" font-size="16">Pemutar Portabel</text><text x="337" y="500" text-anchor="middle" font-size="14">musik · video</text><rect x="299" y="214" width="180" height="36" rx="4" stroke="#525252" stroke-width="2" fill="none"/><text x="389" y="238" text-anchor="middle" font-size="16">Pemutar Digital</text><text x="389" y="272" text-anchor="middle" font-size="14">streaming</text></g></svg>