<svg xmlns="http://www.w3.org/2000/svg" viewBox="0 0 1200 800" role="img">
<title>Diagram rantai penyebaran hoax dan bagaimana individu memutusnya</title>
<defs>
<marker id="a" markerWidth="8" markerHeight="8" refX="7" refY="3" orient="auto"><path d="M0,0 L7,3 L0,6 z" fill="#525252"/></marker>
<g id="p"><circle cx="0" cy="-10" r="8" fill="none" stroke-width="2"/><path d="M-13,14 v-4 a13,13 0 0 1 26,0 v4" fill="none" stroke-width="2"/></g>
</defs>
<text x="600" y="38" text-anchor="middle" font-family="sans-serif" font-size="20" fill="#525252">Rantai Penyebaran Hoax &amp; Cara Memutusnya</text>
<rect x="60" y="360" width="160" height="80" rx="6" fill="none" stroke="#525252" stroke-width="3"/>
<text x="140" y="395" text-anchor="middle" font-family="sans-serif" font-size="18" fill="#525252">Sumber</text>
<text x="140" y="420" text-anchor="middle" font-family="sans-serif" font-size="18" fill="#F37338">Hoax</text>
<g stroke="#525252" stroke-width="2" fill="none">
<line x1="220" y1="400" x2="445" y2="195" marker-end="url(#a)"/>
<line x1="220" y1="400" x2="445" y2="395" marker-end="url(#a)"/>
<line x1="220" y1="400" x2="445" y2="595" marker-end="url(#a)"/>
</g>
<use href="#p" x="475" y="190" stroke="#525252"/>
<use href="#p" x="475" y="590" stroke="#525252"/>
<g transform="translate(475,390)">
<path d="M22,-22 L34,-26 L46,-22 L46,-8 L34,2 L22,-8 Z" fill="none" stroke="#F37338" stroke-width="2"/>
<path d="M28,-15 L32,-10 L40,-19" fill="none" stroke="#F37338" stroke-width="2"/>
<circle cx="0" cy="-14" r="12" fill="none" stroke="#F37338" stroke-width="3"/>
<path d="M-18,22 v-8 a18,18 0 0 1 36,0 v8" fill="none" stroke="#F37338" stroke-width="3"/>
<text x="0" y="44" text-anchor="middle" font-family="sans-serif" font-size="20" fill="#F37338">Anda</text>
</g>
<g stroke="#525252" stroke-width="2" fill="none">
<line x1="500" y1="190" x2="795" y2="100" marker-end="url(#a)"/>
<line x1="500" y1="190" x2="795" y2="200" marker-end="url(#a)"/>
<line x1="500" y1="190" x2="795" y2="300" marker-end="url(#a)"/>
<line x1="500" y1="590" x2="795" y2="500" marker-end="url(#a)"/>
<line x1="500" y1="590" x2="795" y2="600" marker-end="url(#a)"/>
<line x1="500" y1="590" x2="795" y2="700" marker-end="url(#a)"/>
</g>
<g stroke="#A3A3A3" stroke-width="2" fill="none" stroke-dasharray="6,5" opacity="0.55">
<line x1="540" y1="378" x2="795" y2="360"/>
<line x1="540" y1="390" x2="795" y2="410"/>
<line x1="540" y1="402" x2="795" y2="460"/>
</g>
<g transform="translate(665,395)" stroke="#F37338" stroke-width="3" fill="none">
<circle cx="0" cy="0" r="16"/>
<line x1="-8" y1="-8" x2="8" y2="8"/>
<line x1="-8" y1="8" x2="8" y2="-8"/>
</g>
<use href="#p" x="820" y="100" stroke="#525252"/>
<use href="#p" x="820" y="200" stroke="#525252"/>
<use href="#p" x="820" y="300" stroke="#525252"/>
<use href="#p" x="820" y="500" stroke="#525252"/>
<use href="#p" x="820" y="600" stroke="#525252"/>
<use href="#p" x="820" y="700" stroke="#525252"/>
<use href="#p" x="820" y="360" stroke="#A3A3A3" opacity="0.4"/>
<use href="#p" x="820" y="410" stroke="#A3A3A3" opacity="0.4"/>
<use href="#p" x="820" y="460" stroke="#A3A3A3" opacity="0.4"/>
<g font-family="sans-serif" font-size="16" fill="#F37338">
<rect x="380" y="470" width="190" height="36" rx="18" fill="none" stroke="#F37338" stroke-width="2"/>
<text x="475" y="494" text-anchor="middle">Berpikir Kritis</text>
<rect x="380" y="516" width="190" height="36" rx="18" fill="none" stroke="#F37338" stroke-width="2"/>
<text x="475" y="540" text-anchor="middle">Verifikasi Dulu</text>
</g>
<text x="820" y="765" text-anchor="middle" font-family="sans-serif" font-size="14" fill="#A3A3A3">Penyebaran dicegah</text>
<text x="140" y="475" text-anchor="middle" font-family="sans-serif" font-size="14" fill="#525252">1 sumber &#8594; 3 &#8594; 9 orang</text>
</svg>