<svg xmlns="http://www.w3.org/2000/svg" viewBox="0 0 1200 800" role="img" aria-label="Diagram kategori perangkat input dikelompokkan berdasarkan jenis interaksi">
<g fill="none" stroke="#525252" stroke-width="2">
<line x1="600" y1="400" x2="240" y2="160"/>
<line x1="600" y1="400" x2="960" y2="160"/>
<line x1="600" y1="400" x2="160" y2="400"/>
<line x1="600" y1="400" x2="1040" y2="400"/>
<line x1="600" y1="400" x2="240" y2="640"/>
<line x1="600" y1="400" x2="960" y2="640"/>
<line x1="240" y1="160" x2="100" y2="80"/>
<line x1="240" y1="160" x2="100" y2="240"/>
<line x1="960" y1="160" x2="1100" y2="80"/>
<line x1="960" y1="160" x2="1100" y2="240"/>
<line x1="160" y1="400" x2="40" y2="400"/>
<line x1="1040" y1="400" x2="1160" y2="400"/>
<line x1="240" y1="640" x2="100" y2="560"/>
<line x1="240" y1="640" x2="100" y2="720"/>
<line x1="960" y1="640" x2="1100" y2="560"/>
<line x1="960" y1="640" x2="1100" y2="720"/>
</g>
<ellipse cx="600" cy="400" rx="120" ry="56" fill="none" stroke="#F37338" stroke-width="3"/>
<text x="600" y="395" font-family="sans-serif" font-size="20" fill="#F37338" text-anchor="middle" font-weight="bold">Perangkat</text>
<text x="600" y="420" font-family="sans-serif" font-size="20" fill="#F37338" text-anchor="middle" font-weight="bold">Input</text>
<g font-family="sans-serif" font-size="16" fill="#525252" text-anchor="middle">
<rect x="150" y="125" width="180" height="70" rx="8" fill="none" stroke="#525252" stroke-width="3"/>
<text x="240" y="155" font-weight="bold">Keyboard</text>
<text x="240" y="178" font-size="13">tombol &amp; tata letak</text>
<rect x="870" y="125" width="180" height="70" rx="8" fill="none" stroke="#525252" stroke-width="3"/>
<text x="960" y="152" font-weight="bold">Pointing</text>
<text x="960" y="180" font-size="13">Mouse, Stylus, Tablet</text>
<rect x="60" y="365" width="200" height="70" rx="8" fill="none" stroke="#525252" stroke-width="3"/>
<text x="160" y="395" font-weight="bold">Gerakan (Motion)</text>
<text x="160" y="418" font-size="13">sensor jarak &amp; tangan</text>
<rect x="940" y="365" width="200" height="70" rx="8" fill="none" stroke="#525252" stroke-width="3"/>
<text x="1040" y="395" font-weight="bold">Suara (Voice)</text>
<text x="1040" y="418" font-size="13">mic &amp; asisten</text>
<rect x="150" y="605" width="180" height="70" rx="8" fill="none" stroke="#525252" stroke-width="3"/>
<text x="240" y="635" font-weight="bold">Video</text>
<text x="240" y="658" font-size="13">Webcam</text>
<rect x="850" y="605" width="220" height="70" rx="8" fill="none" stroke="#525252" stroke-width="3"/>
<text x="960" y="632" font-weight="bold">Pemindai</text>
<text x="960" y="660" font-size="13">Scanner, OCR, RFID</text>
</g>
<g font-family="sans-serif" font-size="12" fill="#525252" text-anchor="middle">
<rect x="10" y="60" width="180" height="40" rx="6" fill="none" stroke="#A3A3A3" stroke-width="2"/>
<text x="100" y="85">MS Ergonomic Keyboard</text>
<rect x="10" y="220" width="180" height="40" rx="6" fill="none" stroke="#A3A3A3" stroke-width="2"/>
<text x="100" y="245">Apple Magic Keyboard</text>
<rect x="1010" y="60" width="180" height="40" rx="6" fill="none" stroke="#A3A3A3" stroke-width="2"/>
<text x="1100" y="85">Logitech MX Master</text>
<rect x="1010" y="220" width="180" height="40" rx="6" fill="none" stroke="#A3A3A3" stroke-width="2"/>
<text x="1100" y="245">Wacom Stylus Tablet</text>
<rect x="0" y="380" width="160" height="40" rx="6" fill="none" stroke="#A3A3A3" stroke-width="2"/>
<text x="80" y="405">Leap Motion</text>
<rect x="1040" y="380" width="160" height="40" rx="6" fill="none" stroke="#A3A3A3" stroke-width="2"/>
<text x="1120" y="405">Amazon Alexa</text>
<rect x="10" y="540" width="180" height="40" rx="6" fill="none" stroke="#A3A3A3" stroke-width="2"/>
<text x="100" y="565">Logitech C920 Webcam</text>
<rect x="10" y="700" width="180" height="40" rx="6" fill="none" stroke="#A3A3A3" stroke-width="2"/>
<text x="100" y="725">Razer Kiyo</text>
<rect x="1010" y="540" width="180" height="40" rx="6" fill="none" stroke="#A3A3A3" stroke-width="2"/>
<text x="1100" y="565">Epson Perfection V600</text>
<rect x="1010" y="700" width="180" height="40" rx="6" fill="none" stroke="#A3A3A3" stroke-width="2"/>
<text x="1100" y="725">RFID Reader</text>
</g>
</svg>