<svg xmlns="http://www.w3.org/2000/svg" viewBox="0 0 1200 800" role="img"><title>Ilustrasi serangan jaringan: Botnet, DoS, Back door, Spoofing</title><line x1="600" y1="40" x2="600" y2="760" stroke="#525252" stroke-width="2" stroke-dasharray="4 4"/><line x1="40" y1="400" x2="1160" y2="400" stroke="#525252" stroke-width="2" stroke-dasharray="4 4"/><defs><marker id="a" viewBox="0 0 10 10" refX="9" refY="5" markerWidth="6" markerHeight="6" orient="auto"><path d="M0,0 L10,5 L0,10 z" fill="#525252"/></marker><marker id="o" viewBox="0 0 10 10" refX="9" refY="5" markerWidth="6" markerHeight="6" orient="auto"><path d="M0,0 L10,5 L0,10 z" fill="#F37338"/></marker></defs><text x="30" y="60" font-family="sans-serif" font-size="20" fill="#F37338" font-weight="bold">Botnet</text><circle cx="160" cy="200" r="26" fill="none" stroke="#F37338" stroke-width="3"/><text x="160" y="206" font-family="sans-serif" font-size="14" fill="#F37338" text-anchor="middle">C&amp;C</text><g stroke="#525252" stroke-width="2" fill="#A3A3A3"><rect x="240" y="100" width="46" height="34" rx="3"/><rect x="240" y="170" width="46" height="34" rx="3"/><rect x="240" y="240" width="46" height="34" rx="3"/><rect x="240" y="310" width="46" height="34" rx="3"/></g><g stroke="#525252" stroke-width="2" fill="none"><line x1="186" y1="200" x2="240" y2="117"/><line x1="186" y1="200" x2="240" y2="187"/><line x1="186" y1="200" x2="240" y2="257"/><line x1="186" y1="200" x2="240" y2="327"/></g><g stroke="#F37338" stroke-width="2" fill="none" marker-end="url(#o)"><line x1="290" y1="117" x2="430" y2="190"/><line x1="290" y1="187" x2="430" y2="200"/><line x1="290" y1="257" x2="430" y2="215"/><line x1="290" y1="327" x2="430" y2="225"/></g><rect x="440" y="170" width="80" height="80" rx="4" fill="none" stroke="#525252" stroke-width="3"/><line x1="450" y1="195" x2="510" y2="195" stroke="#525252" stroke-width="2"/><line x1="450" y1="215" x2="510" y2="215" stroke="#525252" stroke-width="2"/><line x1="450" y1="235" x2="510" y2="235" stroke="#525252" stroke-width="2"/><text x="480" y="280" font-family="sans-serif" font-size="14" fill="#525252" text-anchor="middle">Victim</text><text x="160" y="360" font-family="sans-serif" font-size="14" fill="#525252" text-anchor="middle">Attacker</text><text x="263" y="370" font-family="sans-serif" font-size="14" fill="#525252" text-anchor="middle">Zombies</text><text x="630" y="60" font-family="sans-serif" font-size="20" fill="#F37338" font-weight="bold">DoS</text><g stroke="#525252" stroke-width="2" fill="#A3A3A3"><rect x="660" y="100" width="50" height="36" rx="3"/><rect x="660" y="160" width="50" height="36" rx="3"/><rect x="660" y="220" width="50" height="36" rx="3"/><rect x="660" y="280" width="50" height="36" rx="3"/></g><g stroke="#F37338" stroke-width="2" fill="none" marker-end="url(#o)"><line x1="715" y1="118" x2="990" y2="190"/><line x1="715" y1="178" x2="990" y2="200"/><line x1="715" y1="238" x2="990" y2="210"/><line x1="715" y1="298" x2="990" y2="220"/><line x1="715" y1="135" x2="990" y2="205"/><line x1="715" y1="260" x2="990" y2="215"/></g><rect x="1000" y="170" width="90" height="100" rx="4" fill="none" stroke="#525252" stroke-width="3"/><line x1="1010" y1="195" x2="1080" y2="195" stroke="#525252" stroke-width="2"/><line x1="1010" y1="215" x2="1080" y2="215" stroke="#525252" stroke-width="2"/><line x1="1010" y1="235" x2="1080" y2="235" stroke="#525252" stroke-width="2"/><polygon points="1045,290 1027,330 1043,325 1035,355 1063,310 1047,315 1057,290" fill="#F37338" stroke="#F37338" stroke-width="1"/><text x="685" y="365" font-family="sans-serif" font-size="14" fill="#525252" text-anchor="middle">Attackers</text><text x="1045" y="380" font-family="sans-serif" font-size="14" fill="#525252" text-anchor="middle">Server overload</text><text x="30" y="430" font-family="sans-serif" font-size="20" fill="#F37338" font-weight="bold">Back door</text><rect x="160" y="500" width="240" height="200" rx="4" fill="none" stroke="#525252" stroke-width="3"/><text x="280" y="490" font-family="sans-serif" font-size="14" fill="#525252" text-anchor="middle">Server</text><rect x="195" y="580" width="40" height="80" fill="none" stroke="#525252" stroke-width="2"/><circle cx="228" cy="620" r="2" fill="#525252"/><text x="215" y="565" font-family="sans-serif" font-size="13" fill="#525252" text-anchor="middle">Login</text><rect x="335" y="580" width="40" height="80" fill="none" stroke="#F37338" stroke-width="2" stroke-dasharray="5 3"/><circle cx="342" cy="620" r="2" fill="#F37338"/><text x="355" y="565" font-family="sans-serif" font-size="13" fill="#F37338" text-anchor="middle">Hidden</text><g stroke="#525252" stroke-width="2" fill="none"><circle cx="490" cy="600" r="14"/><line x1="490" y1="614" x2="490" y2="650"/><line x1="490" y1="625" x2="475" y2="640"/><line x1="490" y1="625" x2="505" y2="640"/><line x1="490" y1="650" x2="478" y2="675"/><line x1="490" y1="650" x2="502" y2="675"/></g><line x1="476" y1="620" x2="385" y2="620" stroke="#F37338" stroke-width="2" marker-end="url(#o)"/><text x="490" y="700" font-family="sans-serif" font-size="14" fill="#525252" text-anchor="middle">Attacker</text><text x="630" y="430" font-family="sans-serif" font-size="20" fill="#F37338" font-weight="bold">Spoofing</text><g stroke="#525252" stroke-width="2" fill="none"><circle cx="730" cy="560" r="20"/><path d="M712,558 Q730,548 748,558 L748,568 Q730,576 712,568 Z" fill="#A3A3A3" stroke="#525252"/><circle cx="722" cy="562" r="2" fill="#525252"/><circle cx="738" cy="562" r="2" fill="#525252"/><line x1="730" y1="580" x2="730" y2="640"/><line x1="730" y1="600" x2="710" y2="625"/><line x1="730" y1="600" x2="750" y2="625"/><line x1="730" y1="640" x2="715" y2="675"/><line x1="730" y1="640" x2="745" y2="675"/></g><text x="730" y="700" font-family="sans-serif" font-size="14" fill="#525252" text-anchor="middle">Attacker (masked)</text><rect x="800" y="490" width="110" height="30" rx="3" fill="none" stroke="#F37338" stroke-width="2"/><text x="855" y="510" font-family="sans-serif" font-size="13" fill="#F37338" text-anchor="middle">IP: 10.0.0.1*</text><line x1="800" y1="520" x2="755" y2="545" stroke="#F37338" stroke-width="2" stroke-dasharray="3 3"/><path d="M780,580 Q900,540 1020,580" stroke="#F37338" stroke-width="2" fill="none" marker-end="url(#o)"/><text x="900" y="555" font-family="sans-serif" font-size="13" fill="#525252" text-anchor="middle">"trusted" packet</text><rect x="1020" y="560" width="100" height="80" rx="4" fill="none" stroke="#525252" stroke-width="3"/><line x1="1030" y1="585" x2="1110" y2="585" stroke="#525252" stroke-width="2"/><line x1="1030" y1="605" x2="1110" y2="605" stroke="#525252" stroke-width="2"/><line x1="1030" y1="625" x2="1110" y2="625" stroke="#525252" stroke-width="2"/><text x="1070" y="670" font-family="sans-serif" font-size="14" fill="#525252" text-anchor="middle">Victim (accepts)</text></svg>