<svg xmlns="http://www.w3.org/2000/svg" viewBox="0 0 1200 800" role="img">
<title>Anatomi URL</title>
<text x="600" y="100" font-family="sans-serif" font-size="22" fill="#525252" text-anchor="middle">Anatomi URL</text>
<text y="240" font-family="sans-serif" font-size="30" fill="#525252">
<tspan x="170" textLength="160" lengthAdjust="spacingAndGlyphs">https://</tspan>
<tspan x="330" textLength="90" lengthAdjust="spacingAndGlyphs">www.</tspan>
<tspan x="420" textLength="150" lengthAdjust="spacingAndGlyphs">example</tspan>
<tspan x="570" textLength="110" lengthAdjust="spacingAndGlyphs">.co.id</tspan>
<tspan x="680" textLength="240" lengthAdjust="spacingAndGlyphs">/news/article</tspan>
<tspan x="920" textLength="110" lengthAdjust="spacingAndGlyphs">?id=42</tspan>
</text>
<g stroke="#F37338" stroke-width="2" fill="none">
<path d="M170 260 L170 285 L328 285 L328 260"/>
<path d="M332 260 L332 285 L418 285 L418 260"/>
<path d="M422 260 L422 285 L568 285 L568 260"/>
<path d="M572 260 L572 285 L678 285 L678 260"/>
<path d="M682 260 L682 285 L918 285 L918 260"/>
<path d="M922 260 L922 285 L1030 285 L1030 260"/>
</g>
<g stroke="#525252" stroke-width="2">
<line x1="250" y1="285" x2="250" y2="380"/>
<line x1="375" y1="285" x2="375" y2="520"/>
<line x1="495" y1="285" x2="495" y2="380"/>
<line x1="625" y1="285" x2="625" y2="520"/>
<line x1="800" y1="285" x2="800" y2="380"/>
<line x1="975" y1="285" x2="975" y2="520"/>
</g>
<g stroke="#525252" stroke-width="2" fill="none">
<rect x="175" y="380" width="150" height="80"/>
<rect x="385" y="380" width="220" height="80"/>
<rect x="750" y="380" width="100" height="80"/>
<rect x="300" y="520" width="150" height="80"/>
<rect x="505" y="520" width="240" height="80"/>
<rect x="895" y="520" width="160" height="80"/>
</g>
<g font-family="sans-serif" font-size="18" fill="#525252" text-anchor="middle">
<text x="250" y="412">Protokol</text>
<text x="250" y="438">(Skema)</text>
<text x="495" y="412">Domain Tingkat</text>
<text x="495" y="438">Kedua</text>
<text x="800" y="425">Path</text>
<text x="375" y="565">Subdomain</text>
<text x="625" y="552">Domain Tingkat Atas</text>
<text x="625" y="578">(ccTLD)</text>
<text x="975" y="552">Query</text>
<text x="975" y="578">String</text>
</g>
</svg>