<svg xmlns="http://www.w3.org/2000/svg" viewBox="0 0 1200 800" role="img"><title>Diagram komponen internal CPU: ALU, CU, register, dan bus</title><rect x="60" y="80" width="720" height="560" fill="none" stroke="#525252" stroke-width="3" rx="8"/><text x="80" y="110" font-family="sans-serif" font-size="20" fill="#F37338" font-weight="bold">CPU</text><rect x="110" y="160" width="240" height="160" fill="none" stroke="#525252" stroke-width="2" rx="6"/><text x="230" y="200" font-family="sans-serif" font-size="18" fill="#525252" text-anchor="middle">Control Unit</text><text x="230" y="225" font-family="sans-serif" font-size="18" fill="#525252" text-anchor="middle">(CU)</text><text x="230" y="270" font-family="sans-serif" font-size="14" fill="#525252" text-anchor="middle">fetch · decode</text><text x="230" y="290" font-family="sans-serif" font-size="14" fill="#525252" text-anchor="middle">sinyal kendali</text><rect x="490" y="160" width="240" height="160" fill="none" stroke="#525252" stroke-width="2" rx="6"/><text x="610" y="200" font-family="sans-serif" font-size="18" fill="#525252" text-anchor="middle">Arithmetic Logic</text><text x="610" y="225" font-family="sans-serif" font-size="18" fill="#525252" text-anchor="middle">Unit (ALU)</text><text x="610" y="270" font-family="sans-serif" font-size="14" fill="#525252" text-anchor="middle">+ − × ÷</text><text x="610" y="290" font-family="sans-serif" font-size="14" fill="#525252" text-anchor="middle">AND OR NOT</text><rect x="260" y="430" width="320" height="140" fill="none" stroke="#525252" stroke-width="2" rx="6"/><text x="420" y="470" font-family="sans-serif" font-size="18" fill="#525252" text-anchor="middle">Registers</text><line x1="310" y1="495" x2="530" y2="495" stroke="#A3A3A3" stroke-width="2"/><text x="420" y="520" font-family="sans-serif" font-size="14" fill="#525252" text-anchor="middle">PC · IR · MAR · MBR</text><text x="420" y="545" font-family="sans-serif" font-size="14" fill="#525252" text-anchor="middle">ACC · general-purpose</text><defs><marker id="a" viewBox="0 0 10 10" refX="9" refY="5" markerWidth="7" markerHeight="7" orient="auto"><path d="M0,0 L10,5 L0,10 z" fill="#525252"/></marker><marker id="b" viewBox="0 0 10 10" refX="9" refY="5" markerWidth="7" markerHeight="7" orient="auto"><path d="M0,0 L10,5 L0,10 z" fill="#F37338"/></marker></defs><line x1="350" y1="240" x2="485" y2="240" stroke="#F37338" stroke-width="3" marker-end="url(#b)"/><text x="417" y="230" font-family="sans-serif" font-size="14" fill="#F37338" text-anchor="middle">control</text><line x1="230" y1="325" x2="230" y2="490" stroke="#F37338" stroke-width="3"/><line x1="230" y1="490" x2="255" y2="490" stroke="#F37338" stroke-width="3" marker-end="url(#b)"/><text x="190" y="410" font-family="sans-serif" font-size="14" fill="#F37338">control</text><line x1="585" y1="325" x2="500" y2="425" stroke="#525252" stroke-width="3" marker-end="url(#a)"/><line x1="495" y1="425" x2="580" y2="325" stroke="#525252" stroke-width="3" marker-end="url(#a)"/><text x="585" y="395" font-family="sans-serif" font-size="14" fill="#525252">data</text><rect x="900" y="280" width="240" height="160" fill="none" stroke="#525252" stroke-width="3" rx="6"/><text x="1020" y="345" font-family="sans-serif" font-size="18" fill="#525252" text-anchor="middle">Main Memory</text><text x="1020" y="370" font-family="sans-serif" font-size="18" fill="#525252" text-anchor="middle">(RAM)</text><line x1="780" y1="360" x2="895" y2="360" stroke="#525252" stroke-width="3" marker-end="url(#a)"/><line x1="895" y1="380" x2="780" y2="380" stroke="#525252" stroke-width="3" marker-end="url(#a)"/><rect x="120" y="680" width="960" height="90" fill="none" stroke="#525252" stroke-width="2" rx="6"/><text x="600" y="705" font-family="sans-serif" font-size="18" fill="#F37338" text-anchor="middle" font-weight="bold">System Bus</text><line x1="200" y1="740" x2="420" y2="740" stroke="#525252" stroke-width="2"/><text x="310" y="755" font-family="sans-serif" font-size="14" fill="#525252" text-anchor="middle">Data Bus</text><line x1="490" y1="740" x2="710" y2="740" stroke="#525252" stroke-width="2"/><text x="600" y="755" font-family="sans-serif" font-size="14" fill="#525252" text-anchor="middle">Address Bus</text><line x1="780" y1="740" x2="1000" y2="740" stroke="#525252" stroke-width="2"/><text x="890" y="755" font-family="sans-serif" font-size="14" fill="#525252" text-anchor="middle">Control Bus</text><line x1="420" y1="640" x2="420" y2="680" stroke="#525252" stroke-width="2"/><line x1="1020" y1="440" x2="1020" y2="680" stroke="#525252" stroke-width="2"/></svg>