<svg xmlns="http://www.w3.org/2000/svg" viewBox="0 0 1200 800" role="img"><title>Diagram alur data: Input, Proses (CPU + Memori), Output, dan Penyimpanan</title><g font-family="sans-serif" fill="#525252"><defs><marker id="a" viewBox="0 0 10 10" refX="9" refY="5" markerWidth="7" markerHeight="7" orient="auto"><path d="M0,0 L10,5 L0,10 z" fill="#525252"/></marker><marker id="b" viewBox="0 0 10 10" refX="9" refY="5" markerWidth="7" markerHeight="7" orient="auto"><path d="M0,0 L10,5 L0,10 z" fill="#F37338"/></marker></defs><rect x="60" y="320" width="220" height="160" rx="8" fill="none" stroke="#525252" stroke-width="3"/><text x="170" y="360" text-anchor="middle" font-size="22" fill="#F37338">Input</text><text x="170" y="395" text-anchor="middle" font-size="15">keyboard</text><text x="170" y="418" text-anchor="middle" font-size="15">mouse</text><text x="170" y="441" text-anchor="middle" font-size="15">mikrofon</text><rect x="490" y="320" width="220" height="160" rx="8" fill="none" stroke="#F37338" stroke-width="3"/><text x="600" y="370" text-anchor="middle" font-size="22" fill="#F37338">CPU</text><text x="600" y="400" text-anchor="middle" font-size="16">Pemrosesan</text><text x="600" y="440" text-anchor="middle" font-size="14">ALU · CU · Register</text><rect x="490" y="80" width="220" height="140" rx="8" fill="none" stroke="#525252" stroke-width="3"/><text x="600" y="125" text-anchor="middle" font-size="22" fill="#F37338">Memori (RAM)</text><text x="600" y="160" text-anchor="middle" font-size="15">data &amp; instruksi</text><text x="600" y="185" text-anchor="middle" font-size="15">sementara</text><rect x="920" y="320" width="220" height="160" rx="8" fill="none" stroke="#525252" stroke-width="3"/><text x="1030" y="360" text-anchor="middle" font-size="22" fill="#F37338">Output</text><text x="1030" y="395" text-anchor="middle" font-size="15">monitor</text><text x="1030" y="418" text-anchor="middle" font-size="15">speaker</text><text x="1030" y="441" text-anchor="middle" font-size="15">printer</text><rect x="490" y="600" width="220" height="140" rx="8" fill="none" stroke="#525252" stroke-width="3"/><text x="600" y="645" text-anchor="middle" font-size="22" fill="#F37338">Penyimpanan</text><text x="600" y="678" text-anchor="middle" font-size="15">hard drive · SSD</text><text x="600" y="703" text-anchor="middle" font-size="15">permanen</text><line x1="285" y1="400" x2="482" y2="400" stroke="#525252" stroke-width="3" marker-end="url(#a)"/><text x="383" y="390" text-anchor="middle" font-size="15" fill="#F37338">data</text><line x1="718" y1="400" x2="915" y2="400" stroke="#525252" stroke-width="3" marker-end="url(#a)"/><text x="816" y="390" text-anchor="middle" font-size="15" fill="#F37338">data</text><line x1="585" y1="312" x2="585" y2="228" stroke="#525252" stroke-width="3" marker-end="url(#a)"/><line x1="615" y1="228" x2="615" y2="312" stroke="#F37338" stroke-width="3" marker-end="url(#b)"/><text x="660" y="275" font-size="15" fill="#F37338">instruksi</text><text x="475" y="275" text-anchor="end" font-size="15">data</text><line x1="585" y1="488" x2="585" y2="592" stroke="#525252" stroke-width="3" marker-end="url(#a)"/><line x1="615" y1="592" x2="615" y2="488" stroke="#F37338" stroke-width="3" marker-end="url(#b)"/><text x="660" y="548" font-size="15" fill="#F37338">data</text><text x="475" y="548" text-anchor="end" font-size="15">simpan</text></g></svg>